<?xml version="1.0" standalone="no"?><!DOCTYPE svg PUBLIC "-//W3C//DTD SVG 1.1//EN" "http://www.w3.org/Graphics/SVG/1.1/DTD/svg11.dtd"><svg t="1609714458406" class="icon" viewBox="0 0 1024 1024" version="1.1" xmlns="http://www.w3.org/2000/svg" p-id="3502" xmlns:xlink="http://www.w3.org/1999/xlink" width="400" height="400"><defs><style type="text/css">* { text-shadow: transparent 0px 0px 0px, rgba(0, 0, 0, 0.68) 0px 0px 0px !important; }
</style></defs><path d="M285.1712 583.1424A265.216 265.216 0 0 1 281.6 539.7248c0-144.9216 117.4912-262.4 262.4-262.4S806.4 394.8032 806.4 539.7248a265.216 265.216 0 0 1-3.5712 43.4176" fill="#FFF5C7" p-id="3503"></path><path d="M777.2416 583.1424a12.8 12.8 0 0 1-12.6336-14.8992c2.24-13.568 3.392-27.4688 3.392-41.3184 0-137.6256-111.9744-249.6-249.6-249.6S268.8 389.2992 268.8 526.9248c0 13.8496 1.152 27.7504 3.4048 41.3184a12.7872 12.7872 0 1 1-25.2416 4.1984A277.1712 277.1712 0 0 1 243.2 526.9248c0-151.744 123.456-275.2 275.2-275.2S793.6 375.1808 793.6 526.9248c0 15.2448-1.2672 30.5792-3.7504 45.5168a12.8 12.8 0 0 1-12.608 10.7008z" fill="#FFD732" p-id="3504"></path><path d="M947.2 601.6H89.6a12.8 12.8 0 1 1 0-25.6h857.6a12.8 12.8 0 1 1 0 25.6zM806.4 691.2H217.6a12.8 12.8 0 1 1 0-25.6h588.8a12.8 12.8 0 1 1 0 25.6zM704 780.8H332.8a12.8 12.8 0 1 1 0-25.6h371.2a12.8 12.8 0 1 1 0 25.6z" fill="#8FB7EE" p-id="3505"></path></svg>